<mxfile host="app.diagrams.net" modified="2023-04-11T11:28:21.624Z" agent="Mozilla/5.0 (Macintosh; Intel Mac OS X 10.15; rv:109.0) Gecko/20100101 Firefox/111.0" version="21.1.5" etag="qG-rJekn7CZUVpqULOuJ" type="github">
  <diagram name="Page-1" id="-2PTPr26bggONzZs8w1a">
    <mxGraphModel>
      <root>
        <mxCell id="0" />
        <mxCell id="1" parent="0" />
      </root>
    </mxGraphModel>
  </diagram>
</mxfile>
